# xmcd CD database file
#
# Track frame offsets:
#	150
#	42415
#	83005
#	124165
#	171870
#	210163
#
# Disc length: 3116 seconds
#
# Revision: 0
# Processed by: cddbd v1.5.2PL0 Copyright (c) Steve Scherf et al.
# Submitted via: CDex 1.51
#
DISCID=450c2a06
DTITLE=BOZO - Red Context-anthology of live 2007- 
DYEAR=2007
DGENRE=Jazz
TTITLE0=Equibirium
TTITLE1=IMADA MINU YAMA
TTITLE2=Red Context
TTITLE3=Mars Rush
TTITLE4=Easy Crunch
TTITLE5=Floating Boat
EXTD=YEAR: 2007
EXTT0=
EXTT1=
EXTT2=
EXTT3=
EXTT4=
EXTT5=
PLAYORDER=
